<svg width="27.559" height="10.867" viewBox="0 0 27.559 10.867" xmlns="http://www.w3.org/2000/svg" >
  <g id="Group_2" data-name="Group 2" transform="translate(0.75 1.061)">
    <path id="Shape" d="M4.016,2.767,2.767,4.016a.863.863,0,0,1-1.25,0L.268,2.767a.863.863,0,0,1,0-1.249L1.517.268a.863.863,0,0,1,1.25,0L4.016,1.517a.863.863,0,0,1,0,1.249Z" transform="translate(11.334 2.231)" fill="none" stroke="#343434" stroke-linecap="round" stroke-miterlimit="10" stroke-width="1.5"/>
    <path id="Shape-2" data-name="Shape" d="M4.373,8.746,0,4.462,4.462,0" fill="none" stroke="#343434" stroke-linecap="round" stroke-linejoin="round" stroke-miterlimit="10" stroke-width="1.5"/>
    <path id="Shape-3" data-name="Shape" d="M.089,8.746,4.462,4.462,0,0" transform="translate(21.597)" fill="none" stroke="#343434" stroke-linecap="round" stroke-linejoin="round" stroke-miterlimit="10" stroke-width="1.5"/>
    <path id="Shape-4" data-name="Shape" d="M6.247,0H0" transform="translate(19.723 4.373)" fill="none" stroke="#343434" stroke-linecap="round" stroke-linejoin="round" stroke-miterlimit="10" stroke-width="1.5"/>
    <path id="Shape-5" data-name="Shape" d="M6.248,0H0" transform="translate(0.981 4.373)" fill="none" stroke="#343434" stroke-linecap="round" stroke-linejoin="round" stroke-miterlimit="10" stroke-width="1.5"/>
  </g>
</svg>
