<svg width="36.661" height="46.045" viewBox="0 0 36.661 46.045" xmlns="http://www.w3.org/2000/svg" xmlns:xlink="http://www.w3.org/1999/xlink" >
  <defs>
    <linearGradient id="linear-gradient" x1="0.5" x2="0.5" y2="1" gradientUnits="objectBoundingBox">
      <stop offset="0" stop-color="#100db4"/>
      <stop offset="1" stop-color="#070641"/>
    </linearGradient>
  </defs>
  <path id="Shape" d="M0,6.257A26.834,26.834,0,0,0,16.737.469L17.207,0l.469.469A26.834,26.834,0,0,0,34.413,6.257c-2.034,6.257-3.128,10.95-3.128,14.078s1.095,4.693,3.128,4.693v4.693C22.994,39.106,17.207,43.8,17.207,43.8S11.419,39.106,0,29.721V25.028c2.033-1.251,3.128-2.816,3.128-4.693A37.724,37.724,0,0,0,0,6.257Z" transform="translate(1.124 1.123)" fill="url(#linear-gradient)"/>
  <path id="Shape-2" data-name="Shape" d="M18.33,46.045a1.127,1.127,0,0,1-.707-.25l-.272-.221-.49-.4-.323-.262q-.955-.776-3.24-2.641Q9.5,39.176.41,31.712A1.118,1.118,0,0,1,0,30.844V26.151a1.116,1.116,0,0,1,.535-.957c1.745-1.074,2.594-2.3,2.594-3.736A36.334,36.334,0,0,0,.083,7.8a1.123,1.123,0,0,1,1.04-1.546A25.735,25.735,0,0,0,17.111.754l.425-.425a1.122,1.122,0,0,1,1.588,0l.425.425a25.738,25.738,0,0,0,15.988,5.5A1.123,1.123,0,0,1,36.6,7.727c-2.068,6.364-3.074,10.855-3.074,13.731a5.178,5.178,0,0,0,.61,2.891,1.518,1.518,0,0,0,1.395.679,1.125,1.125,0,0,1,1.124,1.123v4.693a1.12,1.12,0,0,1-.41.868c-5.957,4.9-10.3,8.446-12.889,10.561q-2.156,1.76-3.239,2.641l-.321.261-.491.4-.271.22h0A1.127,1.127,0,0,1,18.33,46.045Zm0-43.391h0A27.293,27.293,0,0,1,11,6.736,28.323,28.323,0,0,1,2.749,8.457a37.547,37.547,0,0,1,2.626,13,6.363,6.363,0,0,1-3.128,5.3v3.554c4.4,3.617,8.6,7.056,12.472,10.219,1.439,1.175,2.536,2.068,3.236,2.638l.374.3.315-.256.058-.048c.721-.586,1.81-1.474,3.237-2.638,4.094-3.344,8.174-6.686,12.472-10.219V27.135a3.629,3.629,0,0,1-2.135-1.528,7.406,7.406,0,0,1-.994-4.148c0-2.9.892-7.15,2.726-13A28.333,28.333,0,0,1,25.7,6.753a27.278,27.278,0,0,1-7.374-4.1Z" transform="translate(0 0)" fill="#09075f"/>
  <path id="Shape-3" data-name="Shape" d="M0,5.259V0H8.046V5.259Z" transform="translate(7.664 20.279)" fill="#f80d38"/>
  <path id="Shape-4" data-name="Shape" d="M8.046,5.259V0H0V5.259Z" transform="translate(20.951 20.23)" fill="#f80d38"/>
  <path id="Shape-5" data-name="Shape" d="M5.259,8.275H0V0H5.259V8.275Z" transform="translate(15.71 25.538)" fill="#fff"/>
</svg>
