<svg xmlns="http://www.w3.org/2000/svg" width="19.24" height="19.238" viewBox="0 0 19.24 19.238">
  <path id="Shape" d="M0,8.186A4.226,4.226,0,0,0,3.53,6.154a3.8,3.8,0,0,0,.56-2.061A4.1,4.1,0,0,0,0,0" transform="translate(9.62 5.526)" fill="#343434"/>
  <path id="Shape-2" data-name="Shape" d="M4.09,8.186A4.093,4.093,0,1,0,0,4.093,4.09,4.09,0,0,0,4.09,8.186Z" transform="translate(5.53 5.526)" fill="none" stroke="#343434" stroke-linecap="round" stroke-linejoin="round" stroke-miterlimit="10" stroke-width="1.5"/>
  <path id="Shape-3" data-name="Shape" d="M0,0H2.05" transform="translate(16.44 9.619)" fill="none" stroke="#343434" stroke-linecap="round" stroke-linejoin="round" stroke-miterlimit="10" stroke-width="1.5"/>
  <path id="Shape-4" data-name="Shape" d="M0,0H2.05" transform="translate(0.75 9.619)" fill="none" stroke="#343434" stroke-linecap="round" stroke-linejoin="round" stroke-miterlimit="10" stroke-width="1.5"/>
  <path id="Shape-5" data-name="Shape" d="M0,0V2.047" transform="translate(9.62 16.441)" fill="none" stroke="#343434" stroke-linecap="round" stroke-linejoin="round" stroke-miterlimit="10" stroke-width="1.5"/>
  <path id="Shape-6" data-name="Shape" d="M0,0V2.047" transform="translate(9.62 0.75)" fill="none" stroke="#343434" stroke-linecap="round" stroke-linejoin="round" stroke-miterlimit="10" stroke-width="1.5"/>
  <path id="Shape-7" data-name="Shape" d="M1.44,0,0,1.432" transform="translate(14.46 3.343)" fill="none" stroke="#343434" stroke-linecap="round" stroke-linejoin="round" stroke-miterlimit="10" stroke-width="1.5"/>
  <path id="Shape-8" data-name="Shape" d="M1.44,1.433,0,0" transform="translate(14.39 14.394)" fill="none" stroke="#343434" stroke-linecap="round" stroke-linejoin="round" stroke-miterlimit="10" stroke-width="1.5"/>
  <path id="Shape-9" data-name="Shape" d="M1.43,1.433,0,0" transform="translate(3.48 3.479)" fill="none" stroke="#343434" stroke-linecap="round" stroke-linejoin="round" stroke-miterlimit="10" stroke-width="1.5"/>
  <path id="Shape-10" data-name="Shape" d="M1.44,0,0,1.432" transform="translate(3.34 14.463)" fill="none" stroke="#343434" stroke-linecap="round" stroke-linejoin="round" stroke-miterlimit="10" stroke-width="1.5"/>
</svg>
