<svg xmlns="http://www.w3.org/2000/svg" width="27.641" height="32.319" viewBox="0 0 27.641 32.319">
  <path id="Rectangle" d="M0,10V5A4.818,4.818,0,0,1,1.464,1.464,4.818,4.818,0,0,1,5,0H22.641a4.818,4.818,0,0,1,3.536,1.464A4.818,4.818,0,0,1,27.641,5V27.319a5,5,0,0,1-5,5H5a4.818,4.818,0,0,1-3.536-1.464A4.818,4.818,0,0,1,0,27.319Z" fill="#100db1"/>
  <path id="Shape" d="M11.075,14.509c-.058,0-.125,0-.205-.006a8,8,0,0,1-2.86-.844A15.312,15.312,0,0,1,2.916,9.67,14,14,0,0,1,.429,5.522,5.706,5.706,0,0,1,.014,3.111,2.378,2.378,0,0,1,.719,1.6L1.823.484,1.831.478A1.588,1.588,0,0,1,2.936,0,1.535,1.535,0,0,1,4.024.478c.218.2.431.418.611.6.1.1.2.211.3.31l.887.887A1.59,1.59,0,0,1,6.337,3.4a1.592,1.592,0,0,1-.512,1.125l-.136.138L5.552,4.8l-.041.041c-.227.231-.462.469-.713.7A6.56,6.56,0,0,0,5.675,6.93,11.186,11.186,0,0,0,8.35,9.367c.085.053.183.1.287.155l.035.018.092.047c.053.027.106.054.159.083L9.95,8.646a1.569,1.569,0,0,1,1.111-.5,1.515,1.515,0,0,1,1.1.5l1.785,1.791a1.562,1.562,0,0,1,.5,1.115,1.619,1.619,0,0,1-.491,1.125c-.127.132-.265.269-.422.418l-.029.028a6.845,6.845,0,0,0-.54.561.032.032,0,0,1-.007.009l-.006.007A2.45,2.45,0,0,1,11.075,14.509ZM2.942.878a.745.745,0,0,0-.494.229L1.339,2.217a1.5,1.5,0,0,0-.448.966,4.641,4.641,0,0,0,.364,2.035A13.233,13.233,0,0,0,3.6,9.114a14.423,14.423,0,0,0,4.8,3.757,7.045,7.045,0,0,0,2.535.761c.049,0,.1,0,.149,0a1.569,1.569,0,0,0,1.222-.517,8.706,8.706,0,0,1,.627-.651l.068-.066c.115-.111.223-.216.329-.33a.644.644,0,0,0,0-1.018L11.529,9.263l-.006-.005a.662.662,0,0,0-.468-.238.734.734,0,0,0-.49.243L9.453,10.375a.666.666,0,0,1-.816.143L8.614,10.5l-.016-.01c-.084-.051-.182-.1-.285-.153l-.038-.019a4.393,4.393,0,0,1-.4-.218A11.942,11.942,0,0,1,4.99,7.479,7.119,7.119,0,0,1,3.937,5.763l0-.013-.006-.016A.664.664,0,0,1,4.1,5a.025.025,0,0,1,.009-.011l.007-.006c.274-.247.524-.5.815-.793.063-.061.126-.124.186-.185l.094-.095a.621.621,0,0,0,0-1.008L4.32,2.012l-.15-.153-.006-.006L4.011,1.7c-.214-.221-.395-.405-.585-.582l0,0-.005-.005A.69.69,0,0,0,2.942.878Z" transform="translate(6.131 9.01)" fill="#fff"/>
  <path id="Shape-2" data-name="Shape" d="M.361.871A4.124,4.124,0,0,1,2.6,2.034,4.143,4.143,0,0,1,3.767,4.277a.437.437,0,0,0,.432.364.477.477,0,0,0,.075-.007.439.439,0,0,0,.361-.507A5.017,5.017,0,0,0,3.228,1.413,5.018,5.018,0,0,0,.514.006.441.441,0,0,0,.007.364.434.434,0,0,0,.361.871Z" transform="translate(14.082 10.912)" fill="#fff"/>
  <path id="Shape-3" data-name="Shape" d="M7.3,6.794A8.244,8.244,0,0,0,4.979,2.325,8.244,8.244,0,0,0,.51.007a.437.437,0,0,0-.5.358A.442.442,0,0,0,.367.872a7.382,7.382,0,0,1,3.995,2.07,7.364,7.364,0,0,1,2.07,3.995.437.437,0,0,0,.432.364.632.632,0,0,0,.075-.007.43.43,0,0,0,.358-.5Z" transform="translate(14.206 8.12)" fill="#fff"/>
</svg>
